<svg width="46" height="33" viewBox="0 0 46 33" fill="none" xmlns="http://www.w3.org/2000/svg">
<g clip-path="url(#clip0_15_4)">
<path d="M45.7562 28.1371C45.7005 27.9995 45.6486 27.8855 45.6003 27.7941C44.8022 26.1476 43.277 24.1267 41.0258 21.7307L40.9782 21.6758L40.9545 21.6489L40.9303 21.6213H40.9062C39.8843 20.5057 39.2373 19.7555 38.9664 19.3714C38.4707 18.6398 38.3596 17.8992 38.6306 17.1489C38.8219 16.5819 39.5411 15.3847 40.7861 13.5554C41.4409 12.586 41.9596 11.809 42.3428 11.2236C45.1053 7.01682 46.3029 4.32861 45.9354 3.15797L45.7928 2.88441C45.6969 2.71971 45.4494 2.56904 45.0506 2.43163C44.6511 2.29451 44.1402 2.27184 43.5174 2.36322L36.6199 2.41779C36.5081 2.37244 36.3485 2.37667 36.1408 2.43163C35.9331 2.48659 35.8292 2.51417 35.8292 2.51417L35.7091 2.58288L35.6139 2.66542C35.5341 2.72 35.4462 2.81599 35.3503 2.9532C35.2549 3.08994 35.1753 3.25041 35.1113 3.43327C34.3604 5.64629 33.5066 7.70387 32.5485 9.60587C31.9576 10.74 31.415 11.7229 30.9196 12.5551C30.4246 13.3871 30.0095 14 29.6744 14.3929C29.3388 14.7862 29.0361 15.1013 28.764 15.3393C28.4926 15.5774 28.2854 15.678 28.1417 15.6412C27.9979 15.6044 27.8624 15.5679 27.7341 15.5314C27.5108 15.3667 27.3311 15.1427 27.1957 14.8592C27.0595 14.5758 26.968 14.219 26.9201 13.7892C26.8723 13.3591 26.8442 12.9892 26.8362 12.6781C26.8286 12.3675 26.832 11.9281 26.8484 11.3611C26.8649 10.7939 26.8723 10.4101 26.8723 10.2089C26.8723 9.51381 26.8842 8.75941 26.9079 7.94553C26.9321 7.13164 26.9516 6.4868 26.968 6.01173C26.9843 5.53617 26.9919 5.03307 26.9919 4.50265C26.9919 3.97224 26.9636 3.55626 26.9079 3.25435C26.853 2.95282 26.7686 2.66013 26.6572 2.37638C26.5452 2.09292 26.3812 1.87364 26.1662 1.71798C25.9507 1.5625 25.6827 1.43912 25.3639 1.34746C24.5175 1.12808 23.4398 1.00941 22.1303 0.990964C19.1606 0.95445 17.2524 1.17411 16.4062 1.64966C16.0709 1.85058 15.7674 2.12511 15.4962 2.47237C15.2087 2.87489 15.1686 3.09455 15.3761 3.13068C16.3343 3.29509 17.0126 3.68839 17.4118 4.31017L17.5557 4.63968C17.6676 4.8774 17.7793 5.29827 17.8911 5.90172C18.0028 6.50514 18.0749 7.17268 18.1065 7.90391C18.1862 9.23927 18.1862 10.3824 18.1065 11.3332C18.0266 12.2845 17.9511 13.0251 17.8791 13.5555C17.807 14.0859 17.6993 14.5157 17.5557 14.8448C17.4118 15.1741 17.3161 15.3753 17.2681 15.4483C17.2202 15.5213 17.1803 15.5673 17.1486 15.5854C16.941 15.6765 16.7252 15.7229 16.5018 15.7229C16.2781 15.7229 16.0068 15.5947 15.6875 15.3386C15.3683 15.0824 15.0371 14.7305 14.6937 14.2823C14.3503 13.8341 13.9631 13.2077 13.5319 12.403C13.1009 11.5984 12.6538 10.6474 12.1908 9.55004L11.8076 8.75421C11.5681 8.24224 11.241 7.49679 10.8258 6.51849C10.4104 5.53983 10.0433 4.59315 9.72408 3.67867C9.59647 3.29461 9.40479 3.00221 9.14938 2.801L9.0295 2.71846C8.94981 2.64543 8.82188 2.56789 8.64639 2.48525C8.47065 2.40271 8.28727 2.34352 8.09549 2.3071L1.53312 2.36168C0.862525 2.36168 0.407523 2.5357 0.167941 2.88325L0.0720588 3.04766C0.0241594 3.13923 0 3.28548 0 3.48679C0 3.68799 0.0478994 3.93496 0.143782 4.22734C1.10177 6.8064 2.14356 9.29367 3.26915 11.6895C4.39475 14.0854 5.37287 16.0154 6.20292 17.4777C7.03315 18.941 7.87941 20.3221 8.74168 21.6203C9.60395 22.9189 10.1747 23.7512 10.454 24.1168C10.7336 24.4831 10.9532 24.7569 11.1128 24.9398L11.7117 25.5981C12.0949 26.0371 12.6576 26.5629 13.4001 27.1755C14.1427 27.7885 14.9649 28.3918 15.867 28.9867C16.7693 29.5808 17.819 30.0653 19.0166 30.4402C20.2141 30.8154 21.3797 30.9661 22.5134 30.8934H25.2678C25.8262 30.838 26.2494 30.637 26.5372 30.2898L26.6324 30.1523C26.6966 30.0429 26.7566 29.8735 26.8118 29.6451C26.8679 29.4167 26.8957 29.1648 26.8957 28.8908C26.8794 28.1044 26.9316 27.3957 27.0512 26.7649C27.1706 26.1342 27.3065 25.6586 27.4588 25.3384C27.6108 25.0184 27.7824 24.7484 27.9735 24.5295C28.1649 24.3101 28.3013 24.1772 28.3813 24.1315C28.4609 24.0854 28.5244 24.0542 28.5722 24.0355C28.9554 23.8893 29.4064 24.0309 29.9258 24.4611C30.4449 24.8909 30.9318 25.4216 31.387 26.0523C31.8421 26.6836 32.3888 27.392 33.0273 28.1782C33.6665 28.9649 34.2252 29.5495 34.7038 29.9341L35.1826 30.2634C35.5026 30.4829 35.9177 30.6842 36.4288 30.867C36.9389 31.0499 37.3858 31.0957 37.7695 31.0043L43.9006 30.8947C44.5071 30.8947 44.9788 30.7795 45.3135 30.5514C45.649 30.3227 45.8482 30.0708 45.9124 29.7971C45.9765 29.5229 45.98 29.2117 45.9246 28.8637C45.8678 28.5167 45.8119 28.2741 45.7562 28.1371Z" fill="white"/>
</g>
<defs>
<clipPath id="clip0_15_4">
<rect width="46" height="31.6148" fill="white" transform="translate(0 0.987061)"/>
</clipPath>
</defs>
</svg>
