<svg width="39" height="34" viewBox="0 0 39 34" fill="none" xmlns="http://www.w3.org/2000/svg">
<path d="M38.4345 4.87483C36.9438 5.55692 35.4526 5.9829 33.9625 6.15399C35.6455 5.0798 36.784 3.56224 37.3773 1.60143C35.8375 2.57315 34.1947 3.23795 32.4478 3.59619C30.9086 1.85701 29.0175 0.987061 26.7728 0.987061C24.6251 0.987061 22.7939 1.7926 21.2783 3.40403C19.7638 5.01537 19.0064 6.9633 19.0064 9.24805C19.0064 9.86178 19.0704 10.4929 19.1988 11.1408C16.0247 10.9703 13.0473 10.122 10.2659 8.59597C7.48463 7.06972 5.12423 5.03636 3.1847 2.49584C2.47935 3.77438 2.12657 5.16427 2.12657 6.66472C2.12657 8.07997 2.4391 9.39308 3.06459 10.6037C3.68967 11.8142 4.53143 12.7945 5.58946 13.5448C4.33891 13.4936 3.16876 13.144 2.07891 12.496V12.5983C2.07891 14.5934 2.668 16.3451 3.84607 17.8546C5.02428 19.3639 6.51116 20.3139 8.30636 20.7063C7.63303 20.8936 6.95162 20.9874 6.26244 20.9874C5.81356 20.9874 5.32459 20.9448 4.79571 20.8602C5.29259 22.5138 6.20636 23.8731 7.53668 24.9395C8.86724 26.005 10.3741 26.5543 12.0573 26.5893C9.23613 28.9419 6.02217 30.1183 2.41543 30.1183C1.72602 30.1183 1.10104 30.0849 0.539886 30.0164C4.14672 32.4885 8.12209 33.7246 12.4663 33.7246C15.2234 33.7246 17.8123 33.2604 20.232 32.3308C22.6531 31.4019 24.7206 30.157 26.436 28.5964C28.1509 27.0365 29.6299 25.2418 30.8722 23.2128C32.1143 21.1836 33.0398 19.0652 33.6495 16.8571C34.2583 14.6486 34.563 12.4367 34.563 10.2197C34.563 9.7422 34.555 9.3843 34.5387 9.14547C36.0621 7.9695 37.3604 6.54548 38.4345 4.87483Z" fill="white"/>
</svg>
