<svg width="44" height="35" viewBox="0 0 44 35" fill="none" xmlns="http://www.w3.org/2000/svg">
<path d="M42.3369 1.38956C41.9946 1.13049 41.578 0.958449 41.1321 0.892095C40.6862 0.825741 40.2281 0.867608 39.8074 1.01316L1.59832 14.1644C1.09884 14.3363 0.676324 14.6453 0.394001 15.0451C0.111678 15.4449 -0.015271 15.9141 0.0321516 16.3825C0.0795743 16.8508 0.298818 17.2931 0.657075 17.6431C1.01533 17.9931 1.49334 18.2321 2.01957 18.3243L12.3906 20.1417V31.3572C12.3855 31.7887 12.5291 32.2115 12.8027 32.5703C13.0764 32.9291 13.4673 33.2071 13.9243 33.368C14.2304 33.4803 14.5589 33.5385 14.8908 33.5393C15.2151 33.5384 15.536 33.4811 15.8349 33.3707C16.1337 33.2603 16.4046 33.099 16.6317 32.8961L22.552 27.7093L31.2874 34.4441C31.7375 34.7944 32.3185 34.9881 32.9205 34.9886C33.1822 34.9884 33.4423 34.9522 33.6912 34.8815C34.1018 34.7674 34.471 34.561 34.7621 34.2828C35.0532 34.0047 35.256 33.6645 35.3502 33.2963L43.1374 3.52525C43.2391 3.13915 43.2182 2.73605 43.0771 2.35959C42.936 1.98313 42.68 1.64768 42.3369 1.38956ZM1.68193 16.2542C1.66133 16.0974 1.70166 15.9392 1.79641 15.805C1.89116 15.6709 2.03478 15.5686 2.20406 15.5148L37.2286 3.45967L13.0267 18.7734L2.34437 16.9016C2.16692 16.8747 2.005 16.7962 1.8848 16.6787C1.76459 16.5612 1.69312 16.4116 1.68193 16.2542ZM15.4605 31.8702C15.3447 31.9717 15.1972 32.0408 15.0365 32.0688C14.8759 32.0968 14.7094 32.0824 14.5581 32.0275C14.4068 31.9726 14.2774 31.8796 14.1864 31.7603C14.0955 31.641 14.0469 31.5007 14.0469 31.3572V21.1519L21.3062 26.7488L15.4605 31.8702ZM41.523 3.2011L33.7358 32.9721C33.7037 33.0946 33.6359 33.2077 33.5389 33.3004C33.442 33.393 33.3192 33.462 33.1827 33.5006C33.0462 33.5391 32.9006 33.546 32.7601 33.5204C32.6197 33.4948 32.4892 33.4378 32.3815 33.3547L14.5449 19.6029L41.3892 2.61718C41.4598 2.6996 41.5085 2.79481 41.5316 2.89585C41.5548 2.99689 41.5518 3.10119 41.523 3.2011Z" fill="#FEFEFE"/>
</svg>
