<svg width="40" height="35" viewBox="0 0 40 35" fill="none" xmlns="http://www.w3.org/2000/svg">
<g clip-path="url(#clip0_15_2)">
<path d="M38.4408 2.84609C36.9971 0.832476 34.3312 0.0111084 29.2402 0.0111084H10.7595C5.55187 0.0111084 2.84091 0.885458 1.40245 3.02924C0 5.11945 0 8.1992 0 12.4616V20.5859C0 28.8436 1.664 33.0362 10.7595 33.0362H29.2402C33.6552 33.0362 36.1017 32.3116 37.6844 30.5345C39.3076 28.7122 40 25.7369 40 20.5859V12.4616C40 7.96653 39.8916 4.86863 38.4408 2.84609ZM25.6802 17.6454L17.2881 22.7908C17.1005 22.9058 16.8953 22.9629 16.6904 22.9629C16.4584 22.9629 16.227 22.8896 16.0219 22.744C15.6359 22.4696 15.4001 21.9787 15.4001 21.4491V11.1913C15.4001 10.6627 15.6352 10.1722 16.0205 9.89763C16.4059 9.62305 16.8853 9.60428 17.2852 9.84798L25.6773 14.9602C26.1042 15.2203 26.3722 15.7374 26.3728 16.3016C26.3735 16.8663 26.1065 17.3841 25.6802 17.6454Z" fill="white"/>
</g>
<defs>
<clipPath id="clip0_15_2">
<rect width="40" height="34.5787" fill="white" transform="translate(0 0.0111084)"/>
</clipPath>
</defs>
</svg>
