<svg width="51" height="62" viewBox="0 0 51 62" fill="none" xmlns="http://www.w3.org/2000/svg">
<g clip-path="url(#clip0_1_2)">
<path d="M25.0553 49.379C20.2591 49.3844 15.569 47.9674 11.5781 45.3073C7.58722 42.6471 4.47479 38.8633 2.63439 34.4342C0.793994 30.0052 0.308291 25.1299 1.2387 20.4248C2.16912 15.7197 4.47385 11.3962 7.86147 8.00095C11.2491 4.60572 15.5674 2.29128 20.2704 1.35031C24.9734 0.409344 29.8498 0.884102 34.283 2.71455C38.7161 4.545 42.5069 7.64894 45.176 11.6338C47.8451 15.6187 49.2726 20.3056 49.278 25.1018" stroke="white" stroke-width="1.5" stroke-linecap="round" stroke-linejoin="bevel"/>
<path d="M49.3733 25.1602C49.3035 28.4097 48.5944 31.6136 47.2864 34.589C45.9785 37.5644 44.0972 40.2531 41.7502 42.5015C39.4031 44.7499 36.6362 46.514 33.6074 47.693C30.5786 48.8721 27.3472 49.443 24.0977 49.3733" stroke="white" stroke-width="0.5" stroke-linecap="round" stroke-linejoin="round" stroke-dasharray="1.5 3"/>
<circle cx="42" cy="43" r="2" fill="white"/>
<path d="M16.9316 33V16.9H18.8176L26.0396 29.067H25.0276L32.1576 16.9H34.0436L34.0666 33H31.8586L31.8356 20.373H32.3646L26.0166 31.045H24.9586L18.5646 20.373H19.1396V33H16.9316Z" fill="white"/>
<path d="M0.337297 59V49.2H0.939297L5.4893 57.054H5.1673L9.7033 49.2H10.2913L10.3053 59H9.6053L9.5913 50.278H9.7873L5.4893 57.698H5.1393L0.827297 50.278H1.0373V59H0.337297ZM17.1661 59.056C16.5407 59.056 15.9994 58.944 15.5421 58.72C15.0847 58.4867 14.7301 58.1413 14.4781 57.684C14.2354 57.2173 14.1141 56.6433 14.1141 55.962V51.692H14.8141V55.906C14.8141 56.7273 15.0241 57.3527 15.4441 57.782C15.8641 58.2113 16.4567 58.426 17.2221 58.426C17.7727 58.426 18.2487 58.3093 18.6501 58.076C19.0514 57.8427 19.3594 57.516 19.5741 57.096C19.7887 56.6667 19.8961 56.1627 19.8961 55.584V51.692H20.5961V59H19.9241V56.97L20.0221 57.208C19.8074 57.7773 19.4481 58.23 18.9441 58.566C18.4494 58.8927 17.8567 59.056 17.1661 59.056ZM23.3953 59V58.524L28.3933 52.056L28.5753 52.294H23.4653V51.692H29.1213V52.168L24.1093 58.636L23.8993 58.398H29.2053V59H23.3953ZM36.3863 59.07C35.6583 59.07 34.9816 58.9487 34.3563 58.706C33.7403 58.454 33.199 58.104 32.7323 57.656C32.275 57.1987 31.9203 56.6713 31.6683 56.074C31.4163 55.4673 31.2903 54.8093 31.2903 54.1C31.2903 53.3907 31.4163 52.7373 31.6683 52.14C31.9203 51.5333 32.275 51.006 32.7323 50.558C33.199 50.1007 33.7403 49.7507 34.3563 49.508C34.9816 49.256 35.6583 49.13 36.3863 49.13C37.1143 49.13 37.7863 49.256 38.4023 49.508C39.0276 49.7507 39.569 50.096 40.0263 50.544C40.4836 50.992 40.8383 51.5193 41.0903 52.126C41.3516 52.7233 41.4823 53.3813 41.4823 54.1C41.4823 54.8187 41.3516 55.4813 41.0903 56.088C40.8383 56.6853 40.4836 57.208 40.0263 57.656C39.569 58.104 39.0276 58.454 38.4023 58.706C37.7863 58.9487 37.1143 59.07 36.3863 59.07ZM36.3863 58.412C37.0116 58.412 37.5903 58.3047 38.1223 58.09C38.6543 57.8753 39.1163 57.572 39.5083 57.18C39.9003 56.788 40.2036 56.3307 40.4183 55.808C40.6423 55.2853 40.7543 54.716 40.7543 54.1C40.7543 53.4747 40.6423 52.9053 40.4183 52.392C40.2036 51.8693 39.9003 51.412 39.5083 51.02C39.1163 50.628 38.6543 50.3247 38.1223 50.11C37.5903 49.8953 37.0116 49.788 36.3863 49.788C35.761 49.788 35.1823 49.8953 34.6503 50.11C34.1183 50.3247 33.6516 50.628 33.2503 51.02C32.8583 51.412 32.5503 51.8693 32.3263 52.392C32.1116 52.9053 32.0043 53.4747 32.0043 54.1C32.0043 54.716 32.1116 55.2853 32.3263 55.808C32.5503 56.3307 32.8583 56.788 33.2503 57.18C33.6516 57.572 34.1183 57.8753 34.6503 58.09C35.1823 58.3047 35.761 58.412 36.3863 58.412ZM48.0048 51.636C48.6021 51.636 49.1201 51.7527 49.5588 51.986C50.0068 52.21 50.3521 52.5553 50.5948 53.022C50.8468 53.4793 50.9728 54.0487 50.9728 54.73V59H50.2728V54.786C50.2728 53.9647 50.0628 53.3393 49.6428 52.91C49.2321 52.4807 48.6534 52.266 47.9068 52.266C47.3374 52.266 46.8428 52.3827 46.4228 52.616C46.0028 52.8493 45.6808 53.176 45.4568 53.596C45.2421 54.016 45.1348 54.52 45.1348 55.108V59H44.4348V51.692H45.1068V53.722L45.0088 53.498C45.2328 52.9193 45.6014 52.4667 46.1148 52.14C46.6281 51.804 47.2581 51.636 48.0048 51.636Z" fill="white"/>
</g>
<defs>
<clipPath id="clip0_1_2">
<rect width="51" height="62" fill="white"/>
</clipPath>
</defs>
</svg>
